<svg width="533" height="535" viewBox="0 0 533 535" fill="none" xmlns="http://www.w3.org/2000/svg">
<path d="M394.489 222.072C435.49 273.894 462.96 328.414 474.244 374.652C485.538 420.936 480.575 458.719 457.035 477.343C433.496 495.967 395.584 492.106 353.14 470.468C310.738 448.851 263.999 409.575 222.998 357.753C181.996 305.93 154.526 251.41 143.242 205.172C131.948 158.888 136.911 121.105 160.451 102.481C183.991 83.8568 221.902 87.7181 264.347 109.357C306.749 130.974 353.487 170.249 394.489 222.072Z" stroke="#6F3689"/>
<path d="M209.104 114.222L237.441 96.968L221.528 67.8574L238.782 96.1939L267.892 80.2808L239.556 97.5346L255.469 126.645L238.215 98.3087L209.104 114.222Z" fill="#FDC949"/>
<path d="M221.299 92.6424L237.951 96.3028L243.107 80.0513L239.447 96.7036L255.698 101.86L239.046 98.1992L233.89 114.451L237.55 97.7985L221.299 92.6424Z" fill="#FDC949"/>
</svg>
