<svg width="171" height="169" viewBox="0 0 171 169" fill="none" xmlns="http://www.w3.org/2000/svg">
<g clip-path="url(#clip0_113_2817)">
<path d="M70.7886 9.74581C78.0374 -0.273344 92.9626 -0.273344 100.211 9.74581C105.525 17.09 114.776 20.4571 123.567 18.2466C135.56 15.2309 146.993 24.8246 146.106 37.1592C145.456 46.2006 150.378 54.7264 158.533 58.6838C169.659 64.0826 172.251 78.7811 163.643 87.6596C157.333 94.1676 155.623 103.863 159.327 112.137C164.379 123.424 156.917 136.349 144.615 137.617C135.598 138.547 128.057 144.875 125.576 153.594C122.191 165.488 108.166 170.593 97.9273 163.657C90.4224 158.573 80.5776 158.573 73.0727 163.657C62.8344 170.593 48.8092 165.488 45.4244 153.594C42.9432 144.875 35.4017 138.547 26.3847 137.617C14.0835 136.349 6.62082 123.424 11.6733 112.137C15.3769 103.863 13.6674 94.1676 7.35734 87.6596C-1.25087 78.7811 1.34087 64.0826 12.4666 58.6838C20.6219 54.7264 25.5443 46.2006 24.8939 37.1592C24.0065 24.8246 35.4399 15.2309 47.433 18.2466C56.2241 20.4571 65.4752 17.09 70.7886 9.74581Z" fill="#FFD262" stroke="white" stroke-width="4"/>
</g>
<defs>
<clipPath id="clip0_113_2817">
<rect width="171" height="169" fill="white"/>
</clipPath>
</defs>
</svg>
