<svg width="430" height="516" viewBox="0 0 430 516" fill="none" xmlns="http://www.w3.org/2000/svg">
<path d="M285.806 322.98C246.361 375.997 200.809 416.643 159.067 439.509C117.283 462.398 79.503 467.383 55.4208 449.465C31.3386 431.548 25.2561 393.929 35.172 347.33C45.0779 300.778 70.918 245.467 110.363 192.45C149.808 139.433 195.36 98.7876 237.102 75.9216C278.886 53.0326 316.666 48.0477 340.748 65.9651C364.83 83.8824 370.913 121.501 360.997 168.1C351.091 214.652 325.251 269.964 285.806 322.98Z" stroke="#6F3689"/>
<path d="M216 50L240 72.9053L264 50L241.095 74L264 98L240 75.0947L216 98L238.905 74L216 50Z" fill="#FDC949"/>
<path d="M240 56.1936L240.774 73.2259L257.806 74.0001L240.774 74.7743L240 91.8065L239.226 74.7743L222.194 74.0001L239.226 73.2259L240 56.1936Z" fill="#FDC949"/>
</svg>
